<?xml version="1.0" encoding="UTF-8"?>
<!-- Created by grConvert v0.1-0 -->
<svg xmlns="http://www.w3.org/2000/svg" xmlns:xlink="http://www.w3.org/1999/xlink" width="2329pt" height="1590pt" viewBox="0 0 2329 1590" version="1.1">
<g id="surface3629">
<path style="fill-rule:nonzero;fill:rgb(92.54902%,92.54902%,92.54902%);fill-opacity:1;stroke-width:1;stroke-linecap:butt;stroke-linejoin:miter;stroke:rgb(0%,0%,0%);stroke-opacity:1;stroke-miterlimit:4;" d="M 1118.559028 107.630208 C 1142.942708 146.705729 1191.293403 145.3125 1237.165799 128.945312 C 1275.225694 171.09375 1333.207465 190.594618 1398.602431 172.717014 C 1409.592014 240.798611 1510.338542 176.115451 1504.69184 238.789062 C 1486.484375 285.62066 1562.669271 257.890625 1589.84809 265.872396 C 1645.603299 267.009549 1701.011285 273.75434 1756.701389 276.25 C 1796.688368 289.544271 1838.980035 298.684896 1865.690104 334.22309 C 1899.561632 359.652778 1920.542535 396.497396 1934.605035 435.164931 C 1938.485243 478.385417 1960.772569 549.353299 1918.702257 575.959201 C 1850.056424 584.739583 1908.75 622.573785 1950.403646 605.381944 C 2005.62066 597.052951 2063.064236 592.083333 2113.28559 566.102431 C 2169.06684 555.967882 2197.565104 502.057292 2249.69184 484.088542 C 2290.820312 451.744792 2328.038194 411.749132 2379.700521 397.751736 C 2420.486111 363.463542 2505.269097 388.220486 2465.182292 449.791667 C 2451.375868 489.357639 2415.846354 519.830729 2415.30816 564.791667 C 2399.427083 601.011285 2360.295139 631.705729 2372.881944 678.789062 C 2395.251736 731.072049 2361.393229 777.738715 2366.592882 830.607639 C 2376.427951 876.423611 2414.388021 909.522569 2432.868924 949.791667 C 2420.646701 1003.519965 2485.182292 1026.436632 2485.182292 1080.789931 C 2502.743056 1142.556424 2414.448785 1128.385417 2374.700521 1108.268229 C 2324.544271 1090.507812 2271.08941 1093.324653 2218.298611 1080.47309 C 2150.407986 1057.921007 2084.21441 1031.614583 2017.126736 1006.527778 C 1960.512153 988.789062 1902.061632 971.189236 1844.361979 961.019965 C 1770.008681 963.151042 1808.28559 996.115451 1849.227431 1015.954861 C 1860.334201 1068.190104 1993.953993 1119.22309 1895.651042 1155.034722 C 1842.50434 1179.53125 1851.822917 1247.50434 1799.348958 1274.930556 C 1762.378472 1312.478299 1706.171875 1305.651042 1657.699653 1302.092014 C 1614.427083 1292.699653 1572.196181 1280.533854 1533.702257 1257.578125 C 1469.049479 1245.885417 1410.134549 1213.159722 1342.699653 1214.869792 C 1294.010417 1195.334201 1252.074653 1166.649306 1199.700521 1188.398438 C 1154.565972 1208.632812 1104.318576 1212.200521 1061.618924 1233.116319 C 1000.190972 1224.405382 981.72309 1278.272569 1031.701389 1312.578125 C 1076.844618 1337.135417 1101.944444 1382.786458 1131.701389 1422.369792 C 1238.945312 1439.079861 1180.625 1528.081597 1122.057292 1566.601562 C 1084.552951 1602.300347 1045.338542 1636.40191 1003.702257 1666.349826 C 964.986979 1670.668403 954.309896 1624.487847 931.584201 1592.773438 C 917.66059 1555.186632 920.759549 1511.731771 903.368056 1474.171007 C 884.175347 1405.460069 864.574653 1336.892361 854.479167 1266.571181 C 811.436632 1259.05816 761.818576 1272.369792 717.699653 1257.638889 C 660.9375 1251.111111 598.411458 1236.701389 566.08941 1184.023438 C 534.474826 1135.403646 472.986111 1190.755208 427.052951 1156.618924 C 394.227431 1135.46441 349.809028 1134.197049 319.661458 1107.491319 C 275.073785 1090.850694 229.327257 1070.846354 199.37934 1030.108507 C 166.927083 993.984375 119.427083 973.810764 108.789062 922.573785 C 85.998264 879.709201 113.190104 836.115451 153.741319 816.779514 C 209.661458 776.384549 261.024306 730.334201 313.91059 685.959201 C 360.820312 636.579861 428.784722 617.769097 475.789931 567.999132 C 516.527778 526.358507 571.744792 507.769097 618.997396 475.455729 C 659.626736 448.741319 704.427083 441.610243 742.578125 415.329861 C 789.474826 377.773438 819.249132 322.699653 868.858507 287.647569 C 938.871528 218.936632 1010.186632 147.751736 1096.701389 100.529514 L 1107.864583 103.107639 Z M 1118.559028 107.630208 " transform="matrix(0.9,0,0,0.9,0,0)"/>
<path style="fill-rule:evenodd;fill:rgb(100%,100%,100%);fill-opacity:1;stroke-width:1.111111;stroke-linecap:butt;stroke-linejoin:miter;stroke:rgb(0%,0%,0%);stroke-opacity:1;stroke-miterlimit:4;" d="M 525.555556 668.415799 L 468.242188 667.443576 L 398.298611 696.588542 L 363.324653 733.502604 L 343.893229 751.961806 L 325.438368 780.134549 L 326.41059 824.817708 L 355.551215 861.736111 L 409.952257 879.22309 L 505.15625 876.306424 L 578.016493 835.503472 L 597.443576 784.991319 L 594.53125 720.872396 L 555.672743 674.244792 Z M 525.555556 668.415799 " transform="matrix(0.9,0,0,0.9,0,0)"/>
<path style=" stroke:none;fill-rule:evenodd;fill:rgb(70.196078%,70.196078%,70.196078%);fill-opacity:1;" d="M 885.304688 1115.617188 L 764.132812 1120.5625 L 783.914062 1140.347656 L 823.484375 1306.03125 L 858.101562 1407.421875 L 870.46875 1466.773438 L 900.144531 1479.136719 L 1011.425781 1377.746094 L 1031.207031 1315.921875 C 1031.207031 1315.921875 966.910156 1246.683594 942.183594 1217.007812 C 917.453125 1187.332031 882.832031 1147.765625 882.832031 1147.765625 Z M 1713.734375 1011.753906 L 1651.910156 1076.050781 L 1580.195312 1147.765625 L 1473.859375 1155.183594 L 1271.082031 1088.414062 L 1221.621094 1083.46875 L 1149.910156 1046.375 L 1276.027344 989.5 L 1548.046875 870.796875 L 1612.34375 900.472656 Z M 1773.085938 561.683594 L 1807.707031 658.125 L 1815.125 729.839844 L 1782.976562 799.082031 L 1765.664062 813.921875 L 1778.03125 865.851562 L 1832.433594 900.472656 L 1953.605469 944.984375 L 2097.035156 979.605469 L 2161.332031 991.972656 L 2213.265625 999.390625 L 2230.574219 979.605469 L 2168.75 858.433594 L 2109.402344 724.894531 L 2126.710938 648.234375 L 2131.65625 546.84375 L 2203.371094 398.46875 L 2198.425781 358.902344 L 2166.277344 358.902344 L 2025.320312 462.765625 L 1842.324219 546.84375 Z M 1684.058594 539.425781 L 1716.207031 489.96875 L 1696.421875 349.011719 L 1602.453125 267.40625 L 1345.269531 252.566406 L 1320.539062 213 L 1104.824219 141.90625 L 1041.230469 138.589844 L 979.277344 119.03125 L 877.886719 193.21875 L 697.363281 366.320312 L 813.589844 356.429688 L 905.089844 361.375 L 986.695312 344.066406 L 1046.046875 344.066406 L 1184.527344 381.160156 L 1325.484375 433.089844 L 1421.929688 467.710938 L 1486.226562 482.550781 L 1607.398438 524.589844 Z M 1684.058594 539.425781 "/>
<path style=" stroke:none;fill-rule:evenodd;fill:rgb(30.196078%,30.196078%,30.196078%);fill-opacity:1;" d="M 508.847656 818.402344 L 455.515625 824.523438 C 455.515625 824.523438 425.789062 841.132812 430.160156 847.253906 C 434.53125 853.375 475.625 908.457031 475.625 908.457031 L 522.835938 940.804688 C 522.835938 940.804688 528.082031 918.949219 526.335938 915.449219 C 524.585938 911.953125 518.464844 855.996094 518.464844 855.996094 Z M 1587.613281 529.535156 L 1671.695312 556.738281 L 1661.804688 640.816406 L 1631.53125 653.988281 Z M 1426.875 470.183594 L 1515.902344 489.96875 L 1518.375 729.839844 L 1457.847656 660.425781 L 1434.292969 477.601562 Z M 1187.003906 381.160156 C 1178.925781 409.78125 1200.726562 425.914062 1221.847656 451.359375 C 1233.628906 465.554688 1229.117188 496.359375 1235.207031 513.003906 L 1278.53125 557.214844 L 1309.75 637.675781 L 1316.902344 735.472656 L 1355.160156 808.976562 L 1379.453125 795.222656 L 1394.726562 747.152344 L 1384.660156 672.4375 L 1375.089844 624.519531 C 1377.507812 606.90625 1376.589844 589.289062 1373.742188 571.671875 C 1369.574219 545.902344 1346.414062 520.132812 1338.386719 494.363281 C 1332.539062 475.585938 1341.703125 456.8125 1337.851562 438.035156 Z M 724.566406 381.160156 L 903.675781 367.359375 L 1020.105469 349.898438 L 1039.476562 346.238281 L 1055.179688 376.890625 L 1159.15625 463.933594 L 1154.015625 552.691406 L 1235.234375 723.417969 L 1220.417969 810.882812 L 1238.933594 863.378906 L 1184.527344 942.511719 L 1126.941406 900.566406 L 1112.75 851.53125 L 1085.066406 835.570312 L 1070.695312 773.160156 L 1060.75 756.949219 L 1035.246094 784.152344 L 1012.25 784.464844 L 973.816406 744.246094 L 924.382812 675.246094 L 877.519531 572.167969 L 842.914062 540.953125 L 789.832031 524.269531 L 766.582031 497.320312 L 773.132812 423.730469 Z M 640.488281 408.363281 L 440.179688 512.222656 L 456.542969 539.347656 L 523.070312 578.664062 L 594.875 629.15625 L 611.148438 659.523438 L 652.5 699.085938 L 666.34375 744.722656 L 694.890625 769.40625 L 743.816406 773.609375 L 776.496094 734.789062 L 738.265625 643.03125 C 729.039062 621.234375 740.460938 581.820312 730.710938 558.457031 C 720.574219 534.15625 688.542969 531.800781 673.515625 510.4375 C 666.34375 500.238281 645.210938 480.101562 657.910156 473.335938 C 668.214844 467.84375 679.78125 468.027344 677.703125 457.984375 C 676.460938 451.988281 669.128906 436.507812 661.210938 427.261719 C 652.714844 417.351562 643.546875 413.699219 640.488281 408.363281 Z M 640.488281 408.363281 "/>
<path style="fill-rule:nonzero;fill:rgb(0%,0%,0%);fill-opacity:1;stroke-width:1;stroke-linecap:butt;stroke-linejoin:miter;stroke:rgb(0%,0%,0%);stroke-opacity:1;stroke-miterlimit:4;" d="M 1118.559028 107.630208 C 1142.942708 146.705729 1191.293403 145.3125 1237.165799 128.945312 C 1275.225694 171.09375 1333.207465 190.594618 1398.602431 172.717014 C 1409.592014 240.798611 1510.338542 176.115451 1504.69184 238.789062 C 1486.484375 285.62066 1562.669271 257.890625 1589.84809 265.872396 C 1645.603299 267.009549 1701.011285 273.75434 1756.701389 276.25 C 1796.688368 289.544271 1838.980035 298.684896 1865.690104 334.22309 C 1899.561632 359.652778 1920.542535 396.497396 1934.605035 435.164931 C 1938.485243 478.385417 1960.772569 549.353299 1918.702257 575.959201 C 1850.056424 584.739583 1908.75 622.573785 1950.403646 605.381944 C 2005.62066 597.052951 2063.064236 592.083333 2113.28559 566.102431 C 2169.06684 555.967882 2197.565104 502.057292 2249.69184 484.088542 C 2290.820312 451.744792 2328.038194 411.749132 2379.700521 397.751736 C 2420.486111 363.463542 2505.269097 388.220486 2465.182292 449.791667 C 2451.375868 489.357639 2415.846354 519.830729 2415.30816 564.791667 C 2399.427083 601.011285 2360.295139 631.705729 2372.881944 678.789062 C 2395.251736 731.072049 2361.393229 777.738715 2366.592882 830.607639 C 2376.427951 876.423611 2414.388021 909.522569 2432.868924 949.791667 C 2420.646701 1003.519965 2485.182292 1026.436632 2485.182292 1080.789931 C 2502.743056 1142.556424 2414.448785 1128.385417 2374.700521 1108.268229 C 2324.544271 1090.507812 2271.08941 1093.324653 2218.298611 1080.47309 C 2150.407986 1057.921007 2084.21441 1031.614583 2017.126736 1006.527778 C 1960.512153 988.789062 1902.061632 971.189236 1844.361979 961.019965 C 1770.008681 963.151042 1808.28559 996.115451 1849.227431 1015.954861 C 1860.334201 1068.190104 1993.953993 1119.22309 1895.651042 1155.034722 C 1842.50434 1179.53125 1851.822917 1247.50434 1799.348958 1274.930556 C 1762.378472 1312.478299 1706.171875 1305.651042 1657.699653 1302.092014 C 1614.427083 1292.699653 1572.196181 1280.533854 1533.702257 1257.578125 C 1469.049479 1245.885417 1410.134549 1213.159722 1342.699653 1214.869792 C 1294.010417 1195.334201 1252.074653 1166.649306 1199.700521 1188.398438 C 1154.565972 1208.632812 1104.318576 1212.200521 1061.618924 1233.116319 C 1000.190972 1224.405382 981.72309 1278.272569 1031.701389 1312.578125 C 1076.844618 1337.135417 1101.944444 1382.786458 1131.701389 1422.369792 C 1238.945312 1439.079861 1180.625 1528.081597 1122.057292 1566.601562 C 1084.552951 1602.300347 1045.338542 1636.40191 1003.702257 1666.349826 C 964.986979 1670.668403 954.309896 1624.487847 931.584201 1592.773438 C 917.66059 1555.186632 920.759549 1511.731771 903.368056 1474.171007 C 884.175347 1405.460069 864.574653 1336.892361 854.479167 1266.571181 C 811.436632 1259.05816 761.818576 1272.369792 717.699653 1257.638889 C 660.9375 1251.111111 598.411458 1236.701389 566.08941 1184.023438 C 534.474826 1135.403646 472.986111 1190.755208 427.052951 1156.618924 C 394.227431 1135.46441 349.809028 1134.197049 319.661458 1107.491319 C 275.078125 1090.850694 229.327257 1070.846354 199.37934 1030.108507 C 166.927083 993.984375 119.427083 973.810764 108.789062 922.573785 C 85.998264 879.709201 113.190104 836.115451 153.741319 816.779514 C 209.661458 776.384549 261.024306 730.334201 313.91059 685.959201 C 360.820312 636.579861 428.784722 617.769097 475.789931 567.999132 C 516.527778 526.358507 571.744792 507.769097 618.997396 475.455729 C 659.626736 448.741319 704.427083 441.610243 742.582465 415.329861 C 789.474826 377.773438 819.249132 322.699653 868.858507 287.647569 C 938.871528 218.936632 1010.186632 147.751736 1096.701389 100.529514 L 1107.864583 103.107639 Z M 1336.701389 416.25 C 1371.822917 418.259549 1379.622396 369.414062 1407.087674 352.013889 C 1456.384549 316.332465 1390.872396 429.157986 1391.09809 405.789931 C 1351.380208 447.447917 1438.328993 432.864583 1460.698785 457.200521 C 1522.148438 480.729167 1580.451389 518.033854 1648.702257 518.259549 C 1700.104167 526.367188 1747.799479 543.628472 1789.709201 573.940972 C 1838.702257 595.616319 1896.032986 604.344618 1881.701389 530.789931 C 1889.544271 460.273438 1879.075521 378.59375 1814.179688 337.582465 C 1759.253472 291.540799 1683.059896 309.166667 1617.252604 297.790799 C 1573.346354 299.440104 1528.459201 297.092014 1485.533854 294.696181 C 1451.493056 302.243924 1483.706597 219.6875 1419.283854 247.647569 C 1358.125 274.639757 1385.190972 170.911458 1316.701389 228.758681 C 1233.242188 279.830729 1266.983507 119.756944 1186.41059 176.436632 C 1131.106771 220.946181 1109.982639 150.733507 1075.698785 154.830729 C 1018.680556 190.052083 979.578993 249.418403 918.741319 278.741319 C 877.929688 315.447049 836.675347 352.204861 799.418403 391.371528 C 854.088542 406.770833 880.130208 342.960069 919.900174 314.756944 C 954.518229 274.487847 1003.020833 249.331597 1034.908854 206.440972 C 1066.032986 209.418403 998.689236 279.665799 978.914931 307.591146 C 956.40625 335.486111 938.085938 367.395833 901.987847 379.483507 C 927.33941 394.457465 978.893229 387.005208 998.962674 357.790799 C 1049.661458 311.601562 1097.799479 262.877604 1148.710938 217.217882 C 1161.827257 251.697049 1093.615451 300.633681 1073.702257 344.791667 C 1030.368924 373.025174 1037.899306 410.416667 1083.919271 365.789931 C 1114.578993 317.821181 1161.72309 282.209201 1207.699653 251.388889 C 1251.293403 282.864583 1160.564236 333.802083 1139.735243 362.009549 C 1091.679688 376.171875 1213.472222 387.960069 1213.680556 353.177083 C 1245.095486 318.072917 1281.71441 281.380208 1325.190972 265.130208 C 1322.80816 294.904514 1282.421875 334.891493 1263.359375 368.980035 C 1204.110243 395.772569 1299.926215 411.540799 1304.518229 368.480903 C 1330.815972 338.914931 1360.039062 312.326389 1389.700521 287.217882 C 1413.832465 320.46875 1349.461806 398.637153 1320.568576 413.789062 L 1325.590278 415.360243 Z M 1135.698785 393.237847 C 1078.185764 395.78559 1021.948785 412.630208 963.624132 414.570312 C 895.62066 418.524306 824.192708 412.764757 762.699653 447.508681 C 683.875868 439.344618 815.594618 505.616319 742.521701 545.789931 C 766.961806 573.294271 817.929688 589.244792 824.622396 633.789062 C 799.804688 703.58941 882.938368 752.400174 864.427083 831.675347 C 837.96441 896.236979 710.134549 875.668403 722.894965 798.389757 C 723.203125 768.111979 681.354167 757.725694 663.91059 734.578993 C 646.440972 681.006944 611.467014 664.748264 562.916667 646.983507 C 540.047743 625.846354 494.157986 585.095486 464.6875 610.907118 C 420.238715 650.073785 362.274306 666.983507 323.702257 713.58941 C 280.763889 744.335938 243.858507 780.399306 199.800347 809.969618 C 161.588542 850.611979 194.84809 882.508681 238.572049 906.163194 C 277.929688 934.335938 323.975694 950.581597 368.658854 966.788194 C 443.663194 1002.252604 323.402778 1134.127604 361.215278 1095.021701 C 402.378472 1106.25 440.633681 1124.001736 478.74566 1142.161458 C 521.40191 1147.02691 558.020833 1108.016493 597.699653 1092.708333 C 653.064236 1066.467014 663.637153 998.315972 660.451389 943.485243 C 626.527778 908.059896 652.113715 783.159722 689.131944 881.788194 C 704.52691 928.728299 723.459201 984.570312 694.592014 1030.789931 C 682.421875 1088.654514 624.53125 1114.648438 577.408854 1140.078125 C 608.328993 1182.925347 653.637153 1213.958333 707.699653 1215.598958 C 774.188368 1232.682292 845.251736 1222.634549 913.702257 1223.828125 C 975.234375 1200.828993 1044.296875 1220.993924 1103.702257 1192.330729 C 1162.543403 1155.802951 1235.438368 1161.046007 1298.420139 1134.644097 C 1347.612847 1115.390625 1397.252604 1097.5 1441.701389 1067.33941 C 1498.472222 1043.789062 1555.494792 1024.539931 1611.701389 999.500868 C 1684.548611 981.310764 1749.05816 936.809896 1823.424479 925.789931 C 1867.560764 906.757812 1969.670139 994.874132 1946.892361 911.788194 C 1943.142361 857.256944 2022.526042 842.400174 2002.552083 784.596354 C 1985.138889 733.289931 2005.985243 628.216146 1920.221354 647.395833 C 1862.730035 615.559896 1889.986979 707.773438 1855.720486 740.789931 C 1863.90625 779.322917 1811.996528 875.034722 1792.126736 794.171007 C 1763.914931 750.390625 1793.359375 705.368924 1781.358507 664.600694 C 1750.707465 640.112847 1770.672743 602.03559 1743.702257 585.299479 C 1689.700521 530.928819 1699.201389 634.84375 1703.702257 673.789062 C 1684.171007 728.819444 1720.577257 797.252604 1698.233507 847.569444 C 1637.065972 841.610243 1647.452257 764.952257 1603.250868 733.789062 C 1587.235243 694.010417 1627.170139 657.686632 1590.711806 619.791667 C 1572.226562 571.944444 1584.544271 525.720486 1516.901042 515.069444 C 1462.491319 497.365451 1544.956597 572.022569 1536.258681 599.778646 C 1582.690972 633.836806 1545.108507 683.103299 1552.790799 718.776042 C 1565.047743 762.50434 1580.251736 815.15625 1553.958333 855.789931 C 1588.155382 925.638021 1471.688368 942.113715 1466.692708 869.483507 C 1455.16059 823.255208 1420.963542 773.832465 1440.138889 725.789931 C 1446.857639 678.849826 1397.447917 646.966146 1391.987847 599.587674 C 1322.282986 583.224826 1375.117188 507.547743 1324.800347 478.789062 C 1315.759549 440.030382 1393.815104 505.9375 1373.250868 539.22309 C 1378.151042 582.80816 1440.421007 603.268229 1441.974826 655.881076 C 1501.744792 683.953993 1473.563368 749.301215 1475.338542 800.434028 C 1482.942708 837.97309 1517.847222 919.670139 1516.974826 836.844618 C 1541.40625 791.740451 1530.008681 735.299479 1505.711806 690.789931 C 1547.708333 644.913194 1500.260417 581.427951 1467.756076 545.164931 C 1492.165799 496.684028 1451.701389 480.351562 1402.317708 475.056424 C 1355.911458 457.556424 1307.751736 443.389757 1262.699653 423.550347 C 1218.723958 419.010417 1179.600694 383.624132 1135.698785 393.237847 Z M 1177.699653 412.838542 C 1219.717882 439.314236 1252.395833 459.561632 1280.959201 500.77691 C 1331.028646 548.315972 1269.752604 607.881944 1310.824653 657.977431 C 1335.607639 693.632812 1365.555556 725.234375 1365.690104 771.701389 C 1407.426215 815.9375 1369.613715 882.647569 1376.935764 932.703993 C 1415 979.574653 1359.587674 1030.177951 1319.69184 1054.032118 C 1227.148438 1020.377604 1350.78125 1006.970486 1354.952257 948.789062 C 1324.904514 900.807292 1358.059896 855.108507 1351.779514 804.895833 C 1337.999132 763.493924 1327.139757 719.856771 1301.480035 682.829861 C 1279.353299 646.883681 1251.605903 604.796007 1271.818576 561.527778 C 1292.413194 481.705729 1177.118056 465.065104 1165.928819 407.569444 L 1172.269965 408.797743 Z M 2417.699653 414.830729 C 2379.184028 438.190104 2344.392361 468.203125 2305.477431 491.736111 C 2263.502604 530.078125 2211.705729 557.534722 2159.405382 577.573785 C 2105.138889 585.807292 1979.713542 672.317708 2005.203993 655.607639 C 2029.613715 720.026042 2101.627604 630.399306 2152.994792 634.596354 C 2198.524306 619.253472 2245.164931 607.161458 2283.789062 576.801215 C 2324.296875 586.462674 2188.893229 634.856771 2211.701389 628.90191 C 2169.6875 650.143229 2128.415799 677.126736 2079.804688 679.166667 C 2051.41059 696.323785 2006.71441 704.140625 2024.131944 746.788194 C 2062.708333 823.233507 2035.655382 877.048611 1974.709201 914.791667 C 1980.360243 980.707465 2058.919271 981.132812 2107.717014 1005.78559 C 2164.53559 1022.96441 2216.467014 1055.421007 2276.701389 1061.731771 C 2323.381076 1080.212674 2374.136285 1067.608507 2422.699653 1088.467882 C 2491.445312 1141.601562 2444.965278 1028.098958 2412.421875 1008.111979 C 2375.303819 973.702257 2385.690104 916.55816 2351.08941 878.732639 C 2325.347222 834.865451 2295.998264 773.489583 2333.111979 727.829861 C 2360.664062 689.505208 2342.634549 626.471354 2362.717014 578.263889 C 2373.459201 520.681424 2413.107639 473.263889 2432.395833 419.240451 C 2433.359375 411.935764 2422.374132 405.30816 2417.699653 414.830729 Z M 833.710938 444.309896 C 910.985243 457.482639 820.633681 557.361111 880.295139 573.736979 C 926.71875 583.151042 973.27691 615.802951 994.700521 657.790799 C 1012.5 688.828125 1035.668403 771.063368 991.618924 700.789931 C 969.622396 668.671875 968.793403 630.039062 929.292535 610.238715 C 889.613715 590.93316 816.414931 580.130208 842.986111 517.473958 C 884.830729 480.199653 780.46875 422.230903 833.710938 444.309896 Z M 695.698785 473.697917 C 651.180556 492.643229 612.296007 522.81684 565.429688 536.354167 C 518.723958 545.073785 470.321181 595.377604 541.701389 612.34809 C 577.200521 644.908854 630.477431 647.473958 660.733507 682.356771 C 669.917535 719.865451 695.755208 747.699653 729.661458 766.471354 C 726.636285 823.767361 795.976562 896.315104 838.628472 823.294271 C 834.188368 777.999132 835.850694 721.310764 792.721354 691.770833 C 863.75434 597.886285 663.871528 577.19184 741.497396 503.702257 C 747.591146 483.207465 713.085938 458.333333 695.698785 473.697917 Z M 1614.179688 574.791667 C 1570.811632 626.08941 1702.49566 671.362847 1627.326389 715.833333 C 1620.855035 748.381076 1704.578993 812.170139 1660.355903 732.34809 C 1696.883681 671.961806 1619.743924 617.990451 1672.178819 571.788194 C 1663.532986 553.463542 1586.293403 531.805556 1614.179688 574.791667 Z M 1792.951389 633.789062 C 1802.222222 693.962674 1869.756944 674.774306 1826.662326 622.000868 C 1816.341146 614.275174 1771.588542 608.320312 1792.951389 633.789062 Z M 548.702257 656.09809 C 615.698785 685.329861 618.268229 762.799479 601.571181 820.698785 C 566.059028 853.407118 528.229167 894.144965 474.986979 888.020833 C 421.228299 900.403646 364.305556 880.759549 323.350694 845.421007 C 289.140625 783.463542 344.596354 720.894097 392.699653 689.878472 C 438.537326 655.737847 493.624132 653.993056 548.702257 656.09809 Z M 454.700521 678.719618 C 406.831597 684.396701 392.81684 744.227431 352.426215 750.078125 C 319.22309 774.730903 314.600694 843.411458 367.018229 853.728299 C 413.797743 878.671875 475.494792 880.78559 522.877604 856.440972 C 569.84809 828.784722 612.547743 750.698785 571.514757 707.157118 C 547.439236 673.185764 510.394965 675.976562 472.539062 677.296007 C 466.488715 676.419271 460.625 677.708333 454.700521 678.719618 Z M 511.701389 695.898438 C 547.18316 715.329861 568.537326 787.361111 530.611979 815.16059 C 502.365451 845.243056 463.59375 866.462674 425.698785 838.580729 C 365.946181 817.000868 392.5 782.161458 439.700521 797.248264 C 508.320312 750.121528 452.200521 761.419271 415.208333 772.400174 C 355.907118 760.494792 439.375 680.946181 475.915799 692.617188 C 487.877604 692.686632 500.078125 692.630208 511.701389 695.898438 Z M 1207.66059 697.782118 C 1242.109375 726.362847 1257.556424 768.667535 1280.94184 806.788194 C 1292.838542 855.15625 1308.324653 906.909722 1297.790799 956.032986 C 1278.133681 1011.345486 1210.638021 1021.184896 1162.699653 1042.630208 C 1102.734375 1053.763021 1044.522569 1074.622396 982.252604 1064.830729 C 942.591146 1059.071181 895.286458 1088.229167 870.703125 1047.617188 C 875.603299 997.261285 955.616319 1010.190972 996.119792 1018.793403 C 1054.461806 1026.111111 1118.28125 1046.193576 1173.177083 1016.09375 C 1207.730035 998.832465 1266.601562 955.77691 1200.182292 935.789931 C 1178.381076 901.393229 1187.113715 806.792535 1160.112847 885.789931 C 1109.006076 908.407118 1019.835069 752.80816 1102.374132 836.158854 C 1145.846354 921.493056 1163.064236 771.032986 1204.040799 850.251736 C 1194.856771 881.158854 1235.520833 974.635417 1249.800347 911.124132 C 1244.483507 856.757812 1233.033854 805.091146 1212.009549 755.186632 C 1208.854167 702.868924 1163.263889 721.809896 1134.027778 741.653646 C 1096.046007 757.291667 1062.886285 780.203993 1025.425347 797.34375 C 971.124132 815.342882 931.467014 861.184896 876.701389 877.782118 C 817.087674 915.282118 833.402778 866.883681 876.701389 851.831597 C 925.15625 821.749132 970.299479 786.206597 1022.699653 762.721354 C 1080.724826 735.078125 1138.389757 681.119792 1207.66059 697.782118 Z M 2234.700521 725.998264 C 2269.184028 741.853299 2160.434028 750.173611 2132.986111 750.920139 C 2108.524306 747.677951 2003.381076 766.458333 2053.702257 737.599826 C 2114.275174 735.429688 2174.283854 730.121528 2234.700521 725.998264 Z M 2064.700521 793.029514 C 2137.070312 806.614583 2211.649306 815.898438 2278.572049 848.624132 C 2236.657986 867.391493 2173.932292 809.761285 2120.30816 827.686632 C 2105.078125 833.658854 1997.200521 785.078125 2064.700521 793.029514 Z M 263.090278 803.697917 C 191.115451 887.552083 236.150174 753.789062 263.090278 803.697917 Z M 2095.698785 872.66059 C 2145.9375 894.088542 2199.639757 903.259549 2248.658854 926.358507 C 2271.788194 962.747396 2165.069444 904.674479 2137.699653 909.240451 C 2115.130208 907.456597 2031.09375 852.178819 2095.698785 872.66059 Z M 172.139757 961.788194 C 166.627604 1007.243924 236.106771 1002.235243 254.518229 1040.946181 C 287.256944 1064.878472 345.065104 1092.369792 343.841146 1027.790799 C 378.302951 962.248264 259.270833 983.328993 237.699653 929.010417 C 203.641493 919.913194 178.394097 874.761285 148.802083 876.197917 C 125.611979 924.965278 210.993924 939.001736 242.248264 960.820312 C 298.103299 957.005208 340.377604 1061.488715 260.698785 995.16059 C 234.110243 1007.078993 149.583333 920.698785 172.139757 961.788194 Z M 599.69184 875.94184 C 645.334201 910.77691 553.415799 976.875 612.309028 1024.878472 C 615.546875 1094.140625 527.447917 1035.31684 503.702257 999.440104 C 480.099826 956.592882 438.519965 948.845486 409.249132 921.809896 C 444.444444 901.618924 500.329861 918.832465 533.741319 886.358507 C 555.017361 878.498264 576.597222 872.573785 599.69184 875.94184 Z M 539.700521 925.659722 C 455.373264 925.750868 529.045139 986.054688 558.146701 1012.894965 C 577.690972 1036.779514 565.217014 886.71441 539.700521 925.659722 Z M 2071.701389 931.861979 C 2110.512153 947.165799 2157.304688 953.732639 2187.925347 982.039931 C 2152.426215 991.276042 2109.865451 964.943576 2074.700521 951.189236 C 2045.859375 946.189236 2009.887153 909.869792 2071.701389 931.861979 Z M 1757.699653 971.788194 C 1796.888021 985.282118 1782.074653 953.376736 1757.699653 971.788194 Z M 1332.699653 1177.330729 C 1379.782986 1199.952257 1435.486111 1185.225694 1481.701389 1212.751736 C 1534.014757 1218.793403 1577.799479 1247.222222 1627.699653 1263.12066 C 1691.875 1278.767361 1767.721354 1265.282118 1804.21875 1204.791667 C 1827.612847 1174.192708 1848.381076 1142.773438 1881.09809 1120.750868 C 1851.384549 1077.534722 1823.185764 1022.530382 1771.701389 998.268229 C 1717.378472 969.648438 1668.224826 1010.377604 1617.196181 1026.601562 C 1570.321181 1046.158854 1521.432292 1059.674479 1479.079861 1088.645833 C 1420.017361 1110.434028 1442.135417 1134.852431 1491.701389 1152.100694 C 1557.547743 1192.196181 1462.868924 1161.614583 1438.298611 1148.407118 C 1404.704861 1103.736979 1354.097222 1159.049479 1309.700521 1160.789931 C 1312.452257 1170.898438 1323.91059 1174.965278 1332.699653 1177.330729 Z M 1669.700521 1032.65191 C 1711.753472 1041.471354 1826.289062 1082.5 1716.223958 1073.459201 C 1701.666667 1082.165799 1609.06684 1016.87066 1669.700521 1032.65191 Z M 1565.698785 1103.081597 C 1604.405382 1111.944444 1671.063368 1147.152778 1585.698785 1134.110243 C 1562.999132 1129.327257 1507.643229 1081.671007 1565.698785 1103.081597 Z M 914.722222 1259.930556 C 914.878472 1307.326389 953.563368 1241.935764 914.722222 1259.930556 Z M 877.322049 1267.799479 C 889.275174 1294.292535 896.840278 1244.717882 877.322049 1267.799479 Z M 918.342014 1292.790799 C 934.930556 1324.696181 932.565104 1362.165799 956.072049 1390.789931 C 978.923611 1432.734375 996.393229 1481.25 975.750868 1528.493924 C 963.554688 1561.545139 965.095486 1650.147569 1016.453993 1613.993056 C 1026.289062 1571.332465 1081.345486 1547.460938 1110.138889 1500.789931 C 1146.267361 1464.431424 1119.405382 1454.99566 1089.69184 1430.247396 C 1057.625868 1399.205729 1040.950521 1354.717882 1000.698785 1330.881076 C 968.138021 1292.278646 955.811632 1300.386285 985.846354 1340.329861 C 1019.453125 1378.767361 1003.74566 1478.936632 981.532118 1382.790799 C 967.873264 1354.505208 945.121528 1271.818576 918.342014 1292.790799 Z M 884.561632 1300.789931 C 901.24566 1316.124132 881.805556 1267.387153 884.561632 1300.789931 Z M 963.702257 1481.788194 C 965.173611 1449.105903 941.367188 1397.717014 914.956597 1387.721354 C 925.681424 1430.416667 939.548611 1472.256944 956.701389 1512.790799 C 967.170139 1506.323785 962.760417 1491.111111 963.702257 1481.788194 Z M 963.702257 1481.788194 " transform="matrix(0.9,0,0,0.9,0,0)"/>
</g>
</svg>
